<?xml version="1.0" encoding="UTF-8" standalone="no"?>
<svg
   xmlns:dc="http://purl.org/dc/elements/1.1/"
   xmlns:cc="http://creativecommons.org/ns#"
   xmlns:rdf="http://www.w3.org/1999/02/22-rdf-syntax-ns#"
   xmlns:svg="http://www.w3.org/2000/svg"
   xmlns="http://www.w3.org/2000/svg"
   viewBox="0 0 4096 4096"
   height="4096"
   width="4096"
   xml:space="preserve"
   id="svg2"
   version="1.1"><metadata
     id="metadata8"><rdf:RDF><cc:Work
         rdf:about=""><dc:format>image/svg+xml</dc:format><dc:type
           rdf:resource="http://purl.org/dc/dcmitype/StillImage" /></cc:Work></rdf:RDF></metadata><defs
     id="defs6"><clipPath
       id="clipPath14"
       clipPathUnits="userSpaceOnUse"><path
         id="path12"
         d="M 0,7.9200134 H 3072 V 3079.92 H 0 Z" /></clipPath><clipPath
       id="clipPath24"
       clipPathUnits="userSpaceOnUse"><path
         style="clip-rule:evenodd"
         id="path22"
         d="M 0,0 H 12800 V 12831.25 H 0 Z" /></clipPath><clipPath
       id="clipPath36"
       clipPathUnits="userSpaceOnUse"><path
         style="clip-rule:evenodd"
         id="path34"
         d="M 0,0 H 12800 V 12800 H 0 Z" /></clipPath><clipPath
       id="clipPath48"
       clipPathUnits="userSpaceOnUse"><path
         style="clip-rule:evenodd"
         id="path46"
         d="M 0,0 H 12800 V 12800 H 0 Z" /></clipPath><clipPath
       id="clipPath60"
       clipPathUnits="userSpaceOnUse"><path
         id="path58"
         d="M 0,0 H 12800 V 12831.25 H 0 Z" /></clipPath><clipPath
       id="clipPath66"
       clipPathUnits="userSpaceOnUse"><path
         id="path64"
         d="M 0,0 H 12800 V 12800 H 0 Z" /></clipPath><clipPath
       id="clipPath72"
       clipPathUnits="userSpaceOnUse"><path
         id="path70"
         d="M 0,0 H 12800 V 12800 H 0 Z" /></clipPath><clipPath
       id="clipPath78"
       clipPathUnits="userSpaceOnUse"><path
         id="path76"
         d="M 0,0 H 12800 V 12800 H 0 Z" /></clipPath><clipPath
       id="clipPath84"
       clipPathUnits="userSpaceOnUse"><path
         id="path82"
         d="M 6400,0 C 2865.3777,0 0,2865.3777 0,6400 c 0,3534.6221 2865.3777,6400 6400,6400 3534.6221,0 6400,-2865.3779 6400,-6400 C 12800,2865.3777 9934.6221,0 6400,0" /></clipPath><clipPath
       id="clipPath96"
       clipPathUnits="userSpaceOnUse"><path
         id="path94"
         d="M 0,0 H 12800 V 12831.25 H 0 Z" /></clipPath><clipPath
       id="clipPath102"
       clipPathUnits="userSpaceOnUse"><path
         id="path100"
         d="M 0,0 H 12800 V 12800 H 0 Z" /></clipPath><clipPath
       id="clipPath108"
       clipPathUnits="userSpaceOnUse"><path
         id="path106"
         d="M 0,0 H 12800 V 12800 H 0 Z" /></clipPath><clipPath
       id="clipPath114"
       clipPathUnits="userSpaceOnUse"><path
         id="path112"
         d="M 1280,1280 H 11520 V 11520 H 1280 Z" /></clipPath><clipPath
       id="clipPath120"
       clipPathUnits="userSpaceOnUse"><path
         id="path118"
         d="M 6400,1280 7869.5039,2852.3022 10020.384,2779.6128 9947.6963,4930.4961 11520,6400 9947.6963,7869.5039 10020.384,10020.384 7869.5039,9947.6963 6400,11520 4930.4961,9947.6963 2779.6128,10020.384 2852.3022,7869.5039 1280,6400 2852.3022,4930.4961 2779.6128,2779.6128 4930.4961,2852.3022 6400,1280" /></clipPath><clipPath
       id="clipPath132"
       clipPathUnits="userSpaceOnUse"><path
         id="path130"
         d="M 0,0 H 12800 V 12831.25 H 0 Z" /></clipPath><clipPath
       id="clipPath138"
       clipPathUnits="userSpaceOnUse"><path
         id="path136"
         d="M 0,0 H 12800 V 12800 H 0 Z" /></clipPath><clipPath
       id="clipPath144"
       clipPathUnits="userSpaceOnUse"><path
         id="path142"
         d="M 0,0 H 12800 V 12800 H 0 Z" /></clipPath><clipPath
       id="clipPath150"
       clipPathUnits="userSpaceOnUse"><path
         id="path148"
         d="M 2811.3274,2811.3274 H 9988.6731 V 9988.6731 H 2811.3274 Z" /></clipPath><clipPath
       id="clipPath156"
       clipPathUnits="userSpaceOnUse"><path
         id="path154"
         d="m 7885.9346,2811.3274 2102.7383,2102.738 V 7885.9346 L 7885.9346,9988.6729 H 4914.0654 L 2811.3274,7885.9346 V 4914.0654 l 2102.738,-2102.738 h 2971.8692" /></clipPath><clipPath
       id="clipPath168"
       clipPathUnits="userSpaceOnUse"><path
         id="path166"
         d="M 0,0 H 12800 V 12831.25 H 0 Z" /></clipPath><clipPath
       id="clipPath174"
       clipPathUnits="userSpaceOnUse"><path
         id="path172"
         d="M 0,0 H 12800 V 12800 H 0 Z" /></clipPath><clipPath
       id="clipPath180"
       clipPathUnits="userSpaceOnUse"><path
         id="path178"
         d="M 0,0 H 12800 V 12800 H 0 Z" /></clipPath><clipPath
       id="clipPath186"
       clipPathUnits="userSpaceOnUse"><path
         id="path184"
         d="M 2893.447,2893.447 H 9906.5525 V 9906.5525 H 2893.447 Z" /></clipPath><clipPath
       id="clipPath192"
       clipPathUnits="userSpaceOnUse"><path
         id="path190"
         d="m 6400,2893.447 680.6768,966.2503 1072.5996,-496.461 106.3584,1177.1289 1177.1279,106.3584 L 8940.3008,5719.3232 9906.5527,6400 8940.3008,7080.6768 9436.7627,8153.2764 8259.6348,8259.6348 8153.2764,9436.7627 7080.6768,8940.3008 6400,9906.5527 5719.3232,8940.3008 4646.7236,9436.7627 4540.3652,8259.6348 3363.2363,8153.2764 3859.6973,7080.6768 2893.447,6400 3859.6973,5719.3232 3363.2363,4646.7236 4540.3652,4540.3652 4646.7236,3363.2363 5719.3232,3859.6973 6400,2893.447" /></clipPath><clipPath
       id="clipPath204"
       clipPathUnits="userSpaceOnUse"><path
         id="path202"
         d="M 0,0 H 12800 V 12831.25 H 0 Z" /></clipPath><clipPath
       id="clipPath210"
       clipPathUnits="userSpaceOnUse"><path
         id="path208"
         d="M 0,0 H 12800 V 12800 H 0 Z" /></clipPath><clipPath
       id="clipPath216"
       clipPathUnits="userSpaceOnUse"><path
         id="path214"
         d="M 0,0 H 12800 V 12800 H 0 Z" /></clipPath><clipPath
       id="clipPath222"
       clipPathUnits="userSpaceOnUse"><path
         id="path220"
         d="M 3724.4988,3724.4988 H 9075.5017 V 9075.5017 H 3724.4988 Z" /></clipPath><clipPath
       id="clipPath228"
       clipPathUnits="userSpaceOnUse"><path
         id="path226"
         d="m 6400,3724.4988 883.6016,542.3025 1008.2627,241.3335 241.3388,1008.2646 L 9075.502,6400 8533.2031,7283.6016 8291.8643,8291.8643 7283.6016,8533.2031 6400,9075.502 5516.3994,8533.2031 4508.1348,8291.8643 4266.8013,7283.6016 3724.4988,6400 4266.8013,5516.3994 4508.1348,4508.1348 5516.3994,4266.8013 6400,3724.4988" /></clipPath><clipPath
       id="clipPath240"
       clipPathUnits="userSpaceOnUse"><path
         id="path238"
         d="M 0,0 H 12800 V 12831.25 H 0 Z" /></clipPath><clipPath
       id="clipPath246"
       clipPathUnits="userSpaceOnUse"><path
         id="path244"
         d="M 0,0 H 12800 V 12800 H 0 Z" /></clipPath><clipPath
       id="clipPath252"
       clipPathUnits="userSpaceOnUse"><path
         id="path250"
         d="M 0,0 H 12800 V 12800 H 0 Z" /></clipPath><clipPath
       id="clipPath258"
       clipPathUnits="userSpaceOnUse"><path
         id="path256"
         d="M 4069.6274,4069.6274 H 8730.373 V 8730.373 H 4069.6274 Z" /></clipPath><clipPath
       id="clipPath264"
       clipPathUnits="userSpaceOnUse"><path
         id="path262"
         d="m 6400,4069.6274 328.0947,258.8594 392.0274,-144.8027 232.0468,347.5762 417.5879,-16.5708 113.2852,402.2685 402.2666,113.2857 -16.5684,417.5883 347.5762,232.0469 -144.8047,392.0264 258.8613,328.0947 -258.8613,328.0947 144.8047,392.0274 -347.5762,232.0468 16.5684,417.5879 -402.2666,113.2852 -113.2852,402.2666 -417.5879,-16.5684 -232.0468,347.5762 L 6728.0947,8471.5117 6400,8730.373 6071.9053,8471.5117 5679.8789,8616.3164 5447.832,8268.7402 5030.2437,8285.3086 4916.958,7883.042 4514.6895,7769.7568 4531.2603,7352.1689 4183.6841,7120.1221 4328.4868,6728.0947 4069.6274,6400 l 258.8594,-328.0947 -144.8027,-392.0264 347.5762,-232.0469 -16.5708,-417.5883 402.2685,-113.2857 113.2857,-402.2685 417.5883,16.5708 232.0469,-347.5762 392.0264,144.8027 L 6400,4069.6274" /></clipPath><clipPath
       id="clipPath276"
       clipPathUnits="userSpaceOnUse"><path
         style="clip-rule:evenodd"
         id="path274"
         d="M 0,0 H 12800 V 12800 H 0 Z" /></clipPath></defs><g
     clip-path="url(#clipPath14)"
     transform="matrix(1.3333333,0,0,-1.3333333,0,4106.56)"
     id="g10"><g
       transform="matrix(0.31999998,0,0,0.31999998,0,2.3599733e-4)"
       id="g16"><g
         id="g18"><g
           clip-path="url(#clipPath24)"
           id="g20"><g
             transform="scale(3.125)"
             id="g26"><path
               id="path28"
               style="fill:#ffffff;fill-opacity:1;fill-rule:nonzero;stroke:none"
               d="M 0,0 H 4096 V 4106 H 0 Z" /></g></g></g><g
         id="g30"><g
           clip-path="url(#clipPath36)"
           id="g32"><g
             transform="scale(3.125)"
             id="g38"><path
               id="path40"
               style="fill:#ffffff;fill-opacity:1;fill-rule:nonzero;stroke:none"
               d="M 0,0 H 4096 V 4096 H 0 Z" /></g></g></g><g
         id="g42"><g
           clip-path="url(#clipPath48)"
           id="g44"><g
             transform="scale(3.125)"
             id="g50"><path
               id="path52"
               style="fill:#ffffff;fill-opacity:1;fill-rule:nonzero;stroke:none"
               d="M 0,0 H 4096 V 4096 H 0 Z" /></g></g></g><g
         id="g54"><g
           clip-path="url(#clipPath60)"
           id="g56"><g
             clip-path="url(#clipPath66)"
             id="g62"><g
               clip-path="url(#clipPath72)"
               id="g68"><g
                 clip-path="url(#clipPath78)"
                 id="g74"><g
                   clip-path="url(#clipPath84)"
                   id="g80"><g
                     transform="scale(200)"
                     id="g86"><path
                       id="path88"
                       style="fill:#663a89;fill-opacity:1;fill-rule:nonzero;stroke:none"
                       d="M 0,0 H 64 V 64 H 0 Z" /></g></g></g></g></g></g></g><g
         id="g90"><g
           clip-path="url(#clipPath96)"
           id="g92"><g
             clip-path="url(#clipPath102)"
             id="g98"><g
               clip-path="url(#clipPath108)"
               id="g104"><g
                 clip-path="url(#clipPath114)"
                 id="g110"><g
                   clip-path="url(#clipPath120)"
                   id="g116"><g
                     transform="matrix(160,0,0,160,1280,1280)"
                     id="g122"><path
                       id="path124"
                       style="fill:#ac65cd;fill-opacity:1;fill-rule:nonzero;stroke:none"
                       d="M 0,0 H 64 V 64 H 0 Z" /></g></g></g></g></g></g></g><g
         id="g126"><g
           clip-path="url(#clipPath132)"
           id="g128"><g
             clip-path="url(#clipPath138)"
             id="g134"><g
               clip-path="url(#clipPath144)"
               id="g140"><g
                 clip-path="url(#clipPath150)"
                 id="g146"><g
                   clip-path="url(#clipPath156)"
                   id="g152"><g
                     transform="matrix(112.14602,0,0,112.14602,2811.3274,2811.3274)"
                     id="g158"><path
                       id="path160"
                       style="fill:#cb5fc0;fill-opacity:1;fill-rule:nonzero;stroke:none"
                       d="M 0,0 H 64 V 64 H 0 Z" /></g></g></g></g></g></g></g><g
         id="g162"><g
           clip-path="url(#clipPath168)"
           id="g164"><g
             clip-path="url(#clipPath174)"
             id="g170"><g
               clip-path="url(#clipPath180)"
               id="g176"><g
                 clip-path="url(#clipPath186)"
                 id="g182"><g
                   clip-path="url(#clipPath192)"
                   id="g188"><g
                     transform="matrix(109.57978,0,0,109.57978,2893.447,2893.447)"
                     id="g194"><path
                       id="path196"
                       style="fill:#bf5183;fill-opacity:1;fill-rule:nonzero;stroke:none"
                       d="M 0,0 H 64 V 64 H 0 Z" /></g></g></g></g></g></g></g><g
         id="g198"><g
           clip-path="url(#clipPath204)"
           id="g200"><g
             clip-path="url(#clipPath210)"
             id="g206"><g
               clip-path="url(#clipPath216)"
               id="g212"><g
                 clip-path="url(#clipPath222)"
                 id="g218"><g
                   clip-path="url(#clipPath228)"
                   id="g224"><g
                     transform="matrix(83.609421,0,0,83.609421,3724.4988,3724.4988)"
                     id="g230"><path
                       id="path232"
                       style="fill:#bd5c8d;fill-opacity:1;fill-rule:nonzero;stroke:none"
                       d="M 0,0 H 64 V 64 H 0 Z" /></g></g></g></g></g></g></g><g
         id="g234"><g
           clip-path="url(#clipPath240)"
           id="g236"><g
             clip-path="url(#clipPath246)"
             id="g242"><g
               clip-path="url(#clipPath252)"
               id="g248"><g
                 clip-path="url(#clipPath258)"
                 id="g254"><g
                   clip-path="url(#clipPath264)"
                   id="g260"><g
                     transform="matrix(72.82415,0,0,72.82415,4069.6274,4069.6274)"
                     id="g266"><path
                       id="path268"
                       style="fill:#ff6aad;fill-opacity:1;fill-rule:nonzero;stroke:none"
                       d="M 0,0 H 64 V 64 H 0 Z" /></g></g></g></g></g></g></g><g
         id="g270"><g
           clip-path="url(#clipPath276)"
           id="g272"><g
             transform="matrix(3.125,0,0,3.125,4780.0532,4811.77)"
             id="g278"><text
               id="text282"
               style="font-variant:normal;font-weight:900;font-size:472.97000122px;font-family:Aileron;-inkscape-font-specification:Aileron-Black;writing-mode:lr-tb;fill:#ffffff;fill-opacity:1;fill-rule:nonzero;stroke:none"
               transform="translate(0,402)"><tspan
                 id="tspan280"
                 y="0"
                 x="0 364.18634 698.57556">HAR</tspan></text>
</g><g
             transform="matrix(3.125,0,0,3.125,5928.5083,6577.3652)"
             id="g284"><text
               id="text288"
               style="font-variant:normal;font-weight:900;font-size:472.97000122px;font-family:Aileron;-inkscape-font-specification:Aileron-Heavy;writing-mode:lr-tb;fill:#ffffff;fill-opacity:1;fill-rule:nonzero;stroke:none"
               transform="translate(0,402)"><tspan
                 id="tspan286"
                 y="0"
                 x="0">S</tspan></text>
</g><g
             transform="matrix(3.125,0,0,3.125,5839.1313,6056.1211)"
             id="g290"><text
               id="text294"
               style="font-style:italic;font-variant:normal;font-size:158px;font-family:Aileron;-inkscape-font-specification:Aileron-Italic;writing-mode:lr-tb;fill:#ffffff;fill-opacity:1;fill-rule:nonzero;stroke:none"
               transform="translate(0,168)"><tspan
                 id="tspan292"
                 y="0"
                 x="0 153.73415 193.8663 244.90045">With</tspan></text>
</g></g></g></g></g></svg>